<svg width="50" height="50" viewBox="0 0 50 50" fill="none" xmlns="http://www.w3.org/2000/svg">
<rect width="50" height="50" fill="white"/>
<path d="M8 35.72V13H12.896V22.152L12.512 21.736C12.8107 20.8827 13.1947 20.2 13.664 19.688C14.1547 19.1547 14.7413 18.76 15.424 18.504C16.1067 18.248 16.864 18.12 17.696 18.12C18.8693 18.12 19.8293 18.3867 20.576 18.92C21.3227 19.432 21.8773 20.1787 22.24 21.16C22.6027 22.12 22.784 23.272 22.784 24.616V35.72H17.888V25.544C17.888 24.3067 17.6853 23.4427 17.28 22.952C16.896 22.4613 16.3627 22.216 15.68 22.216C14.8907 22.216 14.2293 22.5253 13.696 23.144C13.1627 23.7627 12.896 24.6907 12.896 25.928V35.72H8Z" fill="black"/>
<path d="M32.2435 36.104C30.6435 36.104 29.3848 35.5813 28.4675 34.536C27.5715 33.4693 27.1235 31.912 27.1235 29.864V18.504H32.0195V28.616C32.0195 29.832 32.2115 30.7067 32.5955 31.24C32.9795 31.752 33.5342 32.008 34.2595 32.008C34.9848 32.008 35.6142 31.7093 36.1475 31.112C36.7022 30.4933 36.9795 29.5973 36.9795 28.424V18.504H41.8755V35.72H37.3955L37.2675 30.536L37.8115 30.632C37.5982 32.3813 37.0008 33.736 36.0195 34.696C35.0595 35.6347 33.8008 36.104 32.2435 36.104Z" fill="black"/>
</svg>
